<?xml version="1.0" encoding="UTF-8"?>
<svg width="447px" height="110px" viewBox="0 0 447 110" version="1.1" xmlns="http://www.w3.org/2000/svg" xmlns:xlink="http://www.w3.org/1999/xlink">
    <!-- Generator: Sketch 55.2 (78181) - https://sketchapp.com -->
    <title>logo-purple</title>
    <desc>Created with Sketch.</desc>
    <g id="Page-1" stroke="none" stroke-width="1" fill="none" fill-rule="evenodd">
        <g id="logo-purple" transform="translate(1.000000, 1.000000)" fill="#FFFFFF" fill-rule="nonzero">
            <g id="fireworks">
                <path d="M26.5797747,2.73894087 C24.538749,0.811997355 21.7831879,-0.172237116 18.982526,0.0247865146 C13.9869658,0.472728061 9.95443717,4.29304168 9.2425542,9.25308796 C4.28413567,9.97315175 0.470035696,14.0019746 0.0252194292,18.987643 C-0.173753968,21.7892653 0.811385824,24.5458283 2.74187032,26.5876285 C4.31243412,28.1470302 6.44100797,29.0146409 8.65536143,29.0001823 C8.79331636,29.0001823 8.93392432,29.0001823 9.07364779,28.9881354 L27.1722733,28.9881354 C28.1724466,28.9881354 28.9833739,28.1779533 28.9833739,27.1786991 L28.9833739,9.15678502 C29.1337095,6.77306471 28.2591104,4.43882139 26.5797747,2.73894087 Z M25.3611727,25.3568938 L8.97637199,25.3568938 C7.61008767,25.4664495 6.26502695,24.9760993 5.2904993,24.0139529 C4.08516227,22.6922162 3.48647332,20.9287227 3.63680893,19.1466755 C4.11876679,15.469491 7.24486089,12.7120445 10.9572633,12.6908402 C11.8928808,12.647548 12.6410209,11.8992118 12.6834685,10.9644541 C12.7055766,7.25546335 15.4673282,4.13224205 19.1487793,3.65249424 L19.5308084,3.65249424 C21.1871518,3.59594935 22.799279,4.19232099 24.0187652,5.31350016 C24.9897556,6.31363754 25.4796723,7.68396748 25.3611727,9.07196769 L25.3611727,25.3568938 Z" id="Shape" stroke="#FFFFFF" stroke-width="2"></path>
                <path d="M30.5242248,30.5175716 C26.7213014,31.185516 23.204312,33.630174 23.0211355,37.580613 C22.865659,39.5942817 23.5733459,41.5784429 24.9663809,43.039515 C26.3013358,44.329801 28.0955722,45.0353003 29.9514632,44.9986394 L30.3392612,44.9986394 L43.1491086,44.9986394 C44.159707,44.9986394 44.9790868,44.1795806 44.9790868,43.1673812 L44.9790868,30.4254722 C45.1336701,28.4118037 44.4259832,26.4267482 43.0320545,24.964782 C41.5657488,23.5815024 39.5865486,22.875109 37.5769681,23.018176 C33.6346516,23.1925388 31.1934895,26.7137766 30.5242248,30.5175716 Z M34.0010048,32.2549422 C34.1234202,29.593001 35.5584521,26.7781568 37.7467414,26.6753273 L37.9978272,26.6753273 C38.8985196,26.6279364 39.7813411,26.9471547 40.4443509,27.5596604 C41.1198702,28.3170217 41.4388654,29.3265385 41.3209176,30.3342671 L41.3209176,41.3218163 L30.2642037,41.3218163 C29.2768373,41.4782959 28.274281,41.1528184 27.5665942,40.4473188 C26.8580136,39.7409254 26.5291893,38.7394561 26.681092,37.750505 C26.7829561,35.5535317 29.5958325,34.1246497 32.2568068,34.0021484 C33.2012828,33.9592282 33.9572212,33.2027613 34.0010048,32.2567304 L34.0010048,32.2549422 Z" id="Shape" stroke="#FFFFFF" stroke-width="2"></path>
                <path d="M77.9275465,27.5265371 L27.5269499,77.9273922 C27.0892493,78.3659739 26.9073137,78.9979183 27.0453036,79.601737 C27.1841725,80.2055559 27.6227518,80.6951149 28.2072313,80.8990246 L105.608147,107.899483 C106.260304,108.127123 106.984531,107.961007 107.473209,107.473206 C107.961007,106.984526 108.127123,106.260295 107.899483,105.608135 L80.8991636,28.206822 C80.695255,27.6223394 80.2048196,27.183758 79.6010038,27.0457672 C78.9980671,26.9068977 78.3652471,27.0888342 77.9275465,27.5265371 Z M57.5999621,52.9484528 C61.29317,54.5630309 63.4623361,58.4355577 62.9103766,62.4276175 C62.3584168,66.4196775 59.2198056,69.5591839 55.227766,70.1102675 C51.2348476,70.6622298 47.3623409,68.4930526 45.74865,64.7998257 L57.5999621,52.9484528 Z M61.1999393,88.2002227 C61.1912154,84.2002525 63.82445,80.6740208 67.6618,79.545486 C71.500029,78.4178301 75.622148,79.9585791 77.7790096,83.3274838 C79.9367498,86.6963886 79.6106719,91.0848421 76.9809533,94.0986627 L73.3712425,92.8391685 L61.2105517,88.598374 C61.2035204,88.4621414 61.1999393,88.3294242 61.1999393,88.2002227 L61.1999393,88.2002227 Z M100.440118,95.1357897 C97.4878366,94.4106798 95.1033356,92.2415021 94.1031286,89.3709457 C93.1020424,86.5003893 93.6214822,83.3186945 95.4830276,80.9157242 L100.440118,95.1357897 Z M89.8852075,64.8771708 C86.769448,67.1447874 82.5559217,67.1781865 79.4050053,64.9589104 C76.254968,62.7396345 74.8671586,58.7607584 75.9534998,55.0631372 C77.0398405,51.3663947 80.3595089,48.7709406 84.2091638,48.6083402 L89.8852075,64.8771708 Z M82.9804382,45.1146285 C77.8765692,45.7509674 73.6718319,49.4257368 72.3569726,54.3986726 C71.0429924,59.3707298 72.8825649,64.6433776 77.005563,67.7187229 C81.128561,70.7931892 86.7070449,71.0542287 91.0981125,68.3761559 L94.1400429,77.0924172 C90.3923423,80.4815372 89.0388109,85.7849474 90.7026001,90.5557315 C92.3672681,95.3265155 96.7266947,98.6365327 101.769039,98.9590966 L103.273745,103.278994 L80.5537494,95.3590355 C83.5772227,90.9881607 83.5288822,85.1890387 80.4342168,80.8691414 C77.3386724,76.548365 71.8630216,74.6384693 66.7521212,76.0957205 C61.6412208,77.5529717 57.9963536,82.0635953 57.6447869,87.3670055 L32.1025899,78.4565029 L43.0969585,67.4620779 C45.3197386,71.3890976 49.4875615,73.8122832 53.9999195,73.7999784 C60.9547869,73.7911891 66.5912794,68.1546677 66.6000686,61.1997646 C66.6106156,56.6838676 64.1821689,52.5142656 60.2490168,50.2949897 L78.4443495,32.1004428 L82.9804382,45.1146285 Z" id="Shape" stroke="#FFFFFF" stroke-width="2"></path>
                <path d="M25,48.8181818 C25,47.814098 24.185902,47 23.1818182,47 C13.1445311,47.0106534 5.01065341,55.1445311 5,65.1818182 C5,66.185902 5.81409795,67 6.81818182,67 C7.82226568,67 8.63636364,66.185902 8.63636364,65.1818182 C8.64524159,57.1526989 15.1518111,50.6452416 23.1818182,50.6363636 C24.185902,50.6363636 25,49.8222657 25,48.8181818 Z" id="Path" stroke="#FFFFFF" stroke-width="2"></path>
                <path d="M22,43.1429509 C22,42.1174027 21.1940715,41.2859018 20.2000636,41.2859018 C13.1101773,41.2859018 10.7881892,38.2292061 7.29817574,32.8267167 C6.74624212,31.9734534 5.62831287,31.7431357 4.80129137,32.3125824 C3.97426986,32.8820291 3.75103545,34.0354307 4.30296907,34.8886939 C8.12959179,40.8089449 11.5079878,45 20.2000636,45 C21.1940715,45 22,44.1684991 22,43.1429509 Z" id="Path" stroke="#FFFFFF" stroke-width="2"></path>
                <path d="M29.8574623,57.4222612 C30.7906193,57.0566372 31.2434095,56.0230133 30.8680118,55.1132858 C30.4935036,54.203558 29.4322488,53.7634231 28.498202,54.1281805 C25.722749,55.2727047 23.5317423,57.4499862 22.4135551,60.1757035 C21.519539,63.2306557 22.0915312,66.5152058 23.9694099,69.1118285 C24.2985503,69.6671955 24.9096835,70.0068272 25.5679642,70.0001991 C26.2271342,69.9920983 26.8302614,69.6394705 27.1460582,69.0763056 C27.461855,68.513141 27.4413949,67.8278127 27.0917946,67.283709 C25.801031,65.5734211 25.3500198,63.395273 25.8579634,61.3306246 C26.6283296,59.5778825 28.0596449,58.1786347 29.8574623,57.4222612 L29.8574623,57.4222612 Z" id="Path" stroke="#FFFFFF" stroke-width="2"></path>
                <path d="M20,70.5 C20,68.0144531 17.984668,66 15.5,66 C13.0144531,66 11,68.0144531 11,70.5 C11,72.9855469 13.0144531,75 15.5,75 C17.984668,75 20,72.9855469 20,70.5 Z M14.6,70.5 C14.6,70.003418 15.0025392,69.6 15.5,69.6 C15.996582,69.6 16.4,70.003418 16.4,70.5 C16.4,70.9974608 15.996582,71.4 15.5,71.4 C15.0025392,71.4 14.6,70.9974608 14.6,70.5 Z" id="Shape" stroke="#FFFFFF" stroke-width="2"></path>
                <path d="M4.5,52 C6.98466802,52 9,49.9855469 9,47.5 C9,45.0144531 6.98466802,43 4.5,43 C2.01445312,43 0,45.0144531 0,47.5 C0,49.9855469 2.01445312,52 4.5,52 Z M4.5,46.6 C4.99658198,46.6 5.4,47.003418 5.4,47.5 C5.4,47.9974608 4.99658198,48.4 4.5,48.4 C4.00253918,48.4 3.6,47.9974608 3.6,47.5 C3.6,47.003418 4.00253918,46.6 4.5,46.6 Z" id="Shape" stroke="#FFFFFF" stroke-width="2"></path>
                <path d="M68.6005179,8.48097018 C59.2502069,6.20381637 50.6062048,12.1875259 48.0522138,22.7246441 C47.8131967,23.7126394 48.4174533,24.7087257 49.4012726,24.9487574 C49.5436087,24.982919 49.6886301,25 49.8345469,25 C50.6796109,24.9991011 51.415461,24.4183503 51.6141944,23.5930732 C53.3741477,16.3354881 59.4668442,10.0497163 67.7330741,12.0607677 C68.7177883,12.3007993 69.7087691,11.6939778 69.9477862,10.7050835 C70.1868033,9.71708811 69.5825467,8.72100186 68.5987274,8.48097018 L68.6005179,8.48097018 Z" id="Path"></path>
                <path d="M38.1605635,0.0517756746 C37.2229044,-0.185248808 36.2775666,0.413970303 36.049764,1.39047543 C35.8219614,2.36609288 36.3978667,3.34969986 37.3355258,3.58672435 C42.1082871,4.79581513 44.6149682,11.0170405 43.0391207,17.7531504 C42.8113181,18.7287679 43.3872234,19.7123749 44.3248826,19.9493993 C44.4605403,19.983133 44.5987574,20 44.7378279,20 C45.5432421,19.9991123 46.2445666,19.4256374 46.4339755,18.6106996 C48.4731068,9.89494735 44.839358,1.74290518 38.1605635,0.0517756746 Z" id="Path" stroke="#FFFFFF" stroke-width="2"></path>
                <path d="M57.2545712,31.2103716 C58.2465219,29.8512498 59.7100413,28.9403777 61.3391762,28.668194 C63.5462226,28.6915496 65.6303649,29.7165055 67.0354827,31.4699793 C67.7467583,32.1149557 68.8232601,32.0754307 69.4874661,31.378353 C70.1525435,30.6821735 70.1725918,29.5727781 69.5345357,28.8505479 C67.4007088,26.310167 64.2679582,24.8971472 61.0088165,25.005841 C58.3319446,25.384922 55.9191861,26.8653138 54.3196878,29.1101556 C53.7565944,29.9437743 53.9570767,31.0908983 54.7659783,31.6702991 C55.5757516,32.2505985 56.6879915,32.0448888 57.2510846,31.2103716 L57.2545712,31.2103716 Z" id="Path" stroke="#FFFFFF" stroke-width="2"></path>
                <path d="M73.5664792,16.1294482 C71.1519084,15.5397537 68.7171282,17.0205814 68.1284229,19.4364838 C67.5414748,21.8506285 69.0220249,24.2832287 71.4357171,24.8711656 C73.8494092,25.4591025 76.2824322,23.9791535 76.8711375,21.565009 C77.4589644,19.1508642 75.9801715,16.7173851 73.5664792,16.1276906 L73.5664792,16.1294482 Z M73.3740516,20.714302 C73.2721265,21.1308671 72.8899074,21.4182444 72.4602402,21.39891 C72.0314518,21.3804547 71.6755926,21.0605607 71.6105715,20.636086 C71.5455502,20.2124903 71.7898189,19.8011981 72.1931261,19.6544335 C72.5964333,19.5076689 73.0471883,19.6667372 73.2694906,20.0340878 C73.3933823,20.2379763 73.431165,20.482291 73.3740516,20.714302 Z" id="Shape" stroke="#FFFFFF" stroke-width="2"></path>
                <path d="M54.5658136,0.128727682 C52.1513172,-0.458972946 49.7174906,1.02125966 49.1288035,3.4353127 C48.5409949,5.84936573 50.0206208,8.28274535 52.4351172,8.8713244 C54.8496137,9.45902503 57.28344,7.977914 57.8712486,5.56386097 C58.4590574,3.14980794 56.9785527,0.71642831 54.5640565,0.128727682 L54.5658136,0.128727682 Z M54.3751493,4.71173901 C54.2793776,5.10705326 53.9288013,5.38904412 53.521992,5.39870741 C53.1151827,5.40837071 52.7523054,5.14307074 52.6372038,4.75214881 C52.522981,4.36210531 52.6846503,3.94307214 53.0325909,3.73135917 C53.4569727,3.47308724 54.0105146,3.60749406 54.2688342,4.0317982 C54.3936006,4.23472629 54.4313821,4.47982125 54.3751493,4.71173901 Z" id="Shape"></path>
                <path d="M47.5800782,47.5788623 C47.2138672,47.9618109 47.0058593,48.469804 47,48.9992889 C47,50.1041739 47.8955078,51 49,51 C50.1044922,51 51,50.1041739 51,48.9992889 C50.9921875,48.469804 50.7851562,47.9618109 50.4199218,47.5788623 C50.321289,47.4880095 50.2138672,47.4079031 50.0996093,47.3385424 C49.9970703,47.2594128 49.8828125,47.1988442 49.7597657,47.158791 C49.6396485,47.0982225 49.5107422,47.0571924 49.3779297,47.0386311 C48.725586,46.9087021 48.0517578,47.1109225 47.5800782,47.5788623 Z" id="Path" stroke="#FFFFFF" stroke-width="2"></path>
                <path d="M80.2402849,12.8396758 C80.8545086,13.1033363 81.5615003,13.0388859 82.1181097,12.6678083 C82.6747194,12.2967308 83.0067321,11.6688285 82.9998965,10.9999125 C82.9998965,9.89546859 82.1044387,9 81,9 C79.8955777,9 79.00012,9.89546859 79.00012,10.9999125 C78.994261,11.5321158 79.2032336,12.0438121 79.5801658,12.4197722 C79.7744907,12.5965225 79.9971345,12.7381178 80.2402849,12.8396758 L80.2402849,12.8396758 Z" id="Path" stroke="#FFFFFF" stroke-width="2"></path>
                <path d="M9.58035787,90.5586398 C9.40358908,90.754188 9.26197893,90.9792161 9.16041023,91.2229146 C8.94652992,91.7103118 8.94652992,92.2645297 9.16041023,92.7519269 C9.26197893,92.9956254 9.40358908,93.2206535 9.58035787,93.4162017 C10.1526583,93.992038 11.0159923,94.1600722 11.7601784,93.8387437 C12.0023807,93.7365476 12.2250503,93.59308 12.4203747,93.4162017 C12.596167,93.2206535 12.7387537,92.9956254 12.8403224,92.7519269 C13.0532259,92.2645297 13.0532259,91.7103118 12.8403224,91.2229146 C12.7387537,90.9792161 12.5971435,90.754188 12.4203747,90.5586398 C11.618568,89.8137867 10.3821646,89.8137867 9.58035787,90.5586398 Z" id="Path" stroke="#FFFFFF" stroke-width="2"></path>
                <path d="M6.12038452,77.3424172 C6.00808399,77.2677628 5.8869948,77.2076513 5.76004657,77.1640222 C5.63993384,77.1039107 5.51103244,77.0631902 5.37822494,77.0447689 C4.44368959,76.841166 3.49938936,77.3482346 3.16053486,78.2363313 C2.80312631,79.0672257 3.05702326,80.0328857 3.77769914,80.5855223 C4.49739857,81.1381592 5.50224377,81.1381592 6.22291966,80.5855223 C6.94261909,80.0328857 7.19651579,79.0672257 6.84008394,78.2363313 C6.73852526,77.9958858 6.59692909,77.7738616 6.42017774,77.5809237 C6.32447834,77.4956044 6.22487259,77.4161021 6.12038452,77.3424172 L6.12038452,77.3424172 Z" id="Path" stroke="#FFFFFF" stroke-width="2"></path>
                <path d="M92.7602795,10.8393326 C93.0024621,10.7375572 93.2251135,10.5946802 93.420422,10.4185301 C93.5961999,10.2237869 93.738775,9.99968517 93.8403354,9.75698984 C94.0532215,9.27159916 94.0532215,8.71966275 93.8403354,8.23427207 C93.738775,7.99157674 93.5971764,7.76747506 93.420422,7.57273181 C93.2290199,7.39168873 93.004415,7.24881176 92.7602795,7.15192928 C92.2739612,6.94935691 91.7270975,6.94935691 91.2407792,7.15192928 C90.9956672,7.24881176 90.7720388,7.39168873 90.5806367,7.57273181 C90.4038823,7.76747506 90.2622837,7.99157674 90.1607233,8.23427207 C90.0484209,8.47207442 89.9937345,8.73238487 90.0005703,8.99563095 C89.9937345,9.6659789 90.3247824,10.2952253 90.8823883,10.6670972 C91.4390174,11.0389691 92.1450576,11.1035575 92.7602795,10.8393326 L92.7602795,10.8393326 Z" id="Path" stroke="#FFFFFF" stroke-width="2"></path>
            </g>
            <path d="M148.778271,87 C144.757556,87 140.988192,86.1407493 137.470067,84.4222222 C133.951941,82.7036951 131.128614,80.3333484 129,77.3111111 L133.966741,72.3333333 C135.799714,74.7037156 138.105677,76.6148076 140.884701,78.0666667 C143.663724,79.5185258 146.413142,80.2444444 149.133038,80.2444444 C152.621599,80.2444444 155.444926,79.3555644 157.603104,77.5777778 C159.761282,75.7999911 160.840355,73.4592738 160.840355,70.5555556 C160.840355,68.6592498 160.470809,67 159.731707,65.5777778 C158.992605,64.1555484 157.721369,62.7777844 155.91796,61.4444444 C154.114551,60.1111044 151.557297,58.6444524 148.24612,57.0444444 C141.919407,53.9629476 137.470079,51.0444582 134.898004,48.2888889 C132.325929,45.5333196 131.039911,42.3185369 131.039911,38.6444444 C131.039911,33.90368 132.754602,30.1111253 136.184035,27.2666667 C139.613469,24.422208 144.166269,23 149.842572,23 C153.804159,23 157.425704,23.8592507 160.707317,25.5777778 C163.98893,27.2963049 166.368803,29.6073929 167.847007,32.5111111 L162.525499,36.4222222 C161.106423,34.3481378 159.273478,32.7185244 157.026608,31.5333333 C154.779737,30.3481422 152.414647,29.7555556 149.931264,29.7555556 C146.620087,29.7555556 144.003705,30.5407329 142.08204,32.1111111 C140.160375,33.6814893 139.199557,35.7999867 139.199557,38.4666667 C139.199557,40.0666747 139.55432,41.429624 140.263858,42.5555556 C140.973396,43.6814871 142.288978,44.8518458 144.210643,46.0666667 C146.132308,47.2814876 149.162581,48.9259156 153.301552,51 C158.918727,53.7851991 162.939382,56.6444298 165.363636,59.5777778 C167.787891,62.5111258 169,65.9629431 169,69.9333333 C169,73.311128 168.157436,76.288876 166.472284,78.8666667 C164.787131,81.4444573 162.42204,83.4444373 159.37694,84.8666667 C156.33184,86.288896 152.798985,87 148.778271,87 Z M197.45567,87 C193.081765,87 189.284209,86.0711631 186.062887,84.2134615 C182.841565,82.3557599 180.359115,79.6871969 178.615464,76.2076923 C176.871813,72.7281877 176,68.6589977 176,64 C176,59.3410023 176.871813,55.2718123 178.615464,51.7923077 C180.359115,48.3128031 182.841565,45.6442401 186.062887,43.7865385 C189.284209,41.9288369 193.081765,41 197.45567,41 C204.075634,41 209.321286,43.0640819 213.192784,47.1923077 C217.064281,51.3205335 219,56.9230415 219,64 C219,71.0769585 217.064281,76.6794665 213.192784,80.8076923 C209.321286,84.9359181 204.075634,87 197.45567,87 Z M197.955556,81 C202.340763,81 205.777765,79.44446 208.266667,76.3333333 C210.755568,73.2222067 212,68.9444717 212,63.5 C212,58.0555283 210.755568,53.7777933 208.266667,50.6666667 C205.777765,47.55554 202.340763,46 197.955556,46 C193.629608,46 190.222235,47.55554 187.733333,50.6666667 C185.244432,53.7777933 184,58.0555283 184,63.5 C184,68.9444717 185.244432,73.2222067 187.733333,76.3333333 C190.222235,79.44446 193.629608,81 197.955556,81 Z M237.768844,87 C231.256249,87 228,83.2283179 228,75.6848404 L228,20 L235.688442,20 L235.688442,75.5957447 C235.688442,77.6746558 236.035172,79.1447209 236.728643,80.005984 C237.422114,80.8672472 238.613057,81.2978723 240.301508,81.2978723 C241.628147,81.2978723 243.13567,80.9414929 244.824121,80.2287234 L246,84.7726064 C243.708531,86.2575429 240.96484,87 237.768844,87 Z M259.454545,34 C257.757567,34 256.424247,33.5575265 255.454545,32.6725664 C254.484844,31.7876062 254,30.5781788 254,29.0442478 C254,27.5103168 254.484844,26.2861403 255.454545,25.3716814 C256.424247,24.4572226 257.757567,24 259.454545,24 C261.151524,24 262.5,24.4572226 263.5,25.3716814 C264.5,26.2861403 265,27.5103168 265,29.0442478 C265,30.5781788 264.5,31.7876062 263.5,32.6725664 C262.5,33.5575265 261.151524,34 259.454545,34 Z M255,41 L263,41 L263,86 L255,86 L255,41 Z M291.449848,87 C287.571409,87 284.515715,85.7275576 282.282675,83.1826347 C280.049634,80.6377118 278.933131,77.1197829 278.933131,72.6287425 L278.933131,47.1197605 L271,47.1197605 L271,41.1916168 L278.933131,41.1916168 L278.933131,29.245509 L286.072948,27 L286.425532,27 L286.425532,41.1916168 L298.942249,41.1916168 L298.942249,47.1197605 L286.425532,47.1197605 L286.425532,71.9101796 C286.425532,74.9640871 286.983784,77.2245436 288.100304,78.6916168 C289.216824,80.15869 290.950343,80.8922156 293.300912,80.8922156 C295.827774,80.8922156 297.884491,80.5628775 299.471125,79.9041916 L300,85.5628743 C298.060781,86.5209629 295.210758,87 291.449848,87 Z M324.689655,87 C319.5494,87 315.649439,85.3529576 312.989655,82.0588235 C310.329872,78.7646894 309,73.9117968 309,67.5 L309,42 L316.62069,42 L316.62069,67.5882353 C316.62069,76.5294565 319.848244,81 326.303448,81 C328.813806,81 331.085047,80.3676534 333.117241,79.1029412 C335.149435,77.838229 336.733328,76.0735407 337.868966,73.8088235 C339.004603,71.5441063 339.572414,69.0000141 339.572414,66.1764706 L339.572414,42 L347.193103,42 L347.193103,76.7647059 C347.193103,79.7058971 347.462066,82.8235129 348,86.1176471 L341.006897,86.1176471 C340.468963,83.5293988 340.170115,80.9117779 340.110345,78.2647059 L339.841379,78.2647059 C338.52643,80.9706018 336.509209,83.1029334 333.789655,84.6617647 C331.070101,86.220596 328.036798,87 324.689655,87 Z M374.708241,87 C368.947261,87 364.389029,84.8617235 361.033408,80.5851064 C357.677786,76.3084893 356,70.4579272 356,63.0332447 C356,58.5190377 356.772078,54.584015 358.316258,51.2280585 C359.860438,47.872102 362.057892,45.2735021 364.908686,43.4321809 C367.75948,41.5908596 371.085356,40.6702128 374.886414,40.6702128 C380.350436,40.6702128 384.745343,42.9569807 388.071269,47.5305851 L388.249443,47.5305851 L388.249443,20 L395.732739,20 L395.732739,74.8829787 C395.732739,80.4069425 395.821825,84.1489264 396,86.1090426 L389.051225,86.1090426 C388.932442,84.6835035 388.873051,82.337339 388.873051,79.0704787 L388.694878,79.0704787 C387.328872,81.4463771 385.368981,83.3619165 382.815145,84.8171543 C380.261309,86.272392 377.559034,87 374.708241,87 Z M375.40942,81 C379.274174,81 382.338757,79.872535 384.603261,77.6175711 C386.867765,75.3626072 388,72.3316297 388,68.5245478 L388,60.5297158 C388,56.4297814 386.852668,53.1498831 384.557971,50.6899225 C382.263274,48.2299619 379.213787,47 375.40942,47 C371.544667,47 368.510277,48.4495979 366.306159,51.3488372 C364.102042,54.2480765 363,58.3040222 363,63.5167959 C363,68.9638515 364.102042,73.2394332 366.306159,76.3436693 C368.510277,79.4479053 371.544667,81 375.40942,81 Z M444,66.9192308 L411.713004,66.9192308 C412.131542,71.4013045 413.47682,74.8070396 415.748879,77.1365385 C418.020938,79.4660373 421.15992,80.6307692 425.165919,80.6307692 C430.547112,80.6307692 434.822107,78.5372004 437.991031,74.35 L442.295964,78.4192308 C440.562024,81.1320648 438.155471,83.2403771 435.076233,84.7442308 C431.996995,86.2480844 428.603905,87 424.896861,87 C418.260057,87 413.118105,84.9948918 409.470852,80.9846154 C405.823599,76.9743389 404,71.342344 404,64.0884615 C404,56.8935538 405.838547,51.2468154 409.515695,47.1480769 C413.192843,43.0493385 418.260057,41 424.717489,41 C430.756383,41 435.479804,43.0198516 438.887892,47.0596154 C442.295981,51.0993792 444,56.7461176 444,64 L444,66.9192308 Z M437,60.3913043 C437,56.2173704 435.891855,52.9420409 433.675532,50.5652174 C431.459209,48.1883939 428.400729,47 424.5,47 C420.835679,47 417.924952,48.2173791 415.76773,50.6521739 C413.610509,53.0869687 412.354612,56.5362096 412,61 L437,61 L437,60.3913043 Z" id="Solitude" stroke="#FFFFFF" stroke-width="4"></path>
        </g>
    </g>
</svg>