<?xml version="1.0" encoding="UTF-8"?>
<svg width="465px" height="108px" viewBox="0 0 465 108" version="1.1" xmlns="http://www.w3.org/2000/svg" xmlns:xlink="http://www.w3.org/1999/xlink">
    <!-- Generator: Sketch 55.2 (78181) - https://sketchapp.com -->
    <title>logo-purple</title>
    <desc>Created with Sketch.</desc>
    <g id="Page-1" stroke="none" stroke-width="1" fill="none" fill-rule="evenodd">
        <g id="logo-purple" fill="#411E8F" fill-rule="nonzero">
            <g id="fireworks">
                <path d="M26.5797747,2.73894087 C24.538749,0.811997355 21.7831879,-0.172237116 18.982526,0.0247865146 C13.9869658,0.472728061 9.95443717,4.29304168 9.2425542,9.25308796 C4.28413567,9.97315175 0.470035696,14.0019746 0.0252194292,18.987643 C-0.173753968,21.7892653 0.811385824,24.5458283 2.74187032,26.5876285 C4.31243412,28.1470302 6.44100797,29.0146409 8.65536143,29 C8.79331636,29 8.93392432,29 9.07364779,28.9881354 L27.1722733,28.9881354 C28.1724466,28.9881354 28.9833739,28.1779533 28.9833739,27.1786991 L28.9833739,9.15678502 C29.1337095,6.77306471 28.2591104,4.43882139 26.5797747,2.73894087 Z M25.3611727,25.3568938 L8.97637199,25.3568938 C7.61008767,25.4664495 6.26502695,24.9760993 5.2904993,24.0139529 C4.08516227,22.6922162 3.48647332,20.9287227 3.63680893,19.1466755 C4.11876679,15.469491 7.24486089,12.7120445 10.9572633,12.6908402 C11.8928808,12.647548 12.6410209,11.8992118 12.6834685,10.9644541 C12.7055766,7.25546335 15.4673282,4.13224205 19.1487793,3.65249424 L19.5308084,3.65249424 C21.1871518,3.59594935 22.799279,4.19232099 24.0187652,5.31350016 C24.9897556,6.31363754 25.4796723,7.68396748 25.3611727,9.07196769 L25.3611727,25.3568938 Z" id="Shape"></path>
                <path d="M30.5242248,30.5175716 C26.7213014,31.185516 23.204312,33.630174 23.0211355,37.580613 C22.865659,39.5942817 23.5733459,41.5784429 24.9663809,43.039515 C26.3013358,44.329801 28.0955722,45.0353003 29.9514632,44.9986394 L30.3392612,44.9986394 L43.1491086,44.9986394 C44.159707,44.9986394 44.9790868,44.1795806 44.9790868,43.1673812 L44.9790868,30.4254722 C45.1336701,28.4118037 44.4259832,26.4267482 43.0320545,24.964782 C41.5657488,23.5815024 39.5865486,22.875109 37.5769681,23.018176 C33.6346516,23.1925388 31.1934895,26.7137766 30.5242248,30.5175716 Z M34.0010048,32.2549422 C34.1234202,29.593001 35.5584521,26.7781568 37.7467414,26.6753273 L37.9978272,26.6753273 C38.8985196,26.6279364 39.7813411,26.9471547 40.4443509,27.5596604 C41.1198702,28.3170217 41.4388654,29.3265385 41.3209176,30.3342671 L41.3209176,41.3218163 L30.2642037,41.3218163 C29.2768373,41.4782959 28.274281,41.1528184 27.5665942,40.4473188 C26.8580136,39.7409254 26.5291893,38.7394561 26.681092,37.750505 C26.7829561,35.5535317 29.5958325,34.1246497 32.2568068,34.0021484 C33.2012828,33.9592282 33.9572212,33.2027613 34.0010048,32.2567304 L34.0010048,32.2549422 Z" id="Shape"></path>
                <path d="M77.9275465,27.5265371 L27.5269499,77.9273922 C27.0892493,78.3659739 26.9073137,78.9979183 27.0453036,79.601737 C27.1841725,80.2055559 27.6227518,80.6951149 28.2072313,80.8990246 L105.608147,107.899483 C106.260304,108.127123 106.984531,107.961007 107.473209,107.473206 C107.961007,106.984526 108.127123,106.260295 107.899483,105.608135 L80.8991636,28.206822 C80.695255,27.6223394 80.2048196,27.183758 79.6010038,27.0457672 C78.9980671,26.9068977 78.3652471,27.0888342 77.9275465,27.5265371 Z M57.5999621,52.9484528 C61.29317,54.5630309 63.4623361,58.4355577 62.9103766,62.4276175 C62.3584168,66.4196775 59.2198056,69.5591839 55.227766,70.1102675 C51.2348476,70.6622298 47.3623409,68.4930526 45.74865,64.7998257 L57.5999621,52.9484528 Z M61.199961,88.2002227 C61.1912154,84.2002525 63.82445,80.6740208 67.6618,79.545486 C71.500029,78.4178301 75.622148,79.9585791 77.7790096,83.3274838 C79.9367498,86.6963886 79.6106719,91.0848421 76.9809533,94.0986627 L73.3712425,92.8391685 L61.2105517,88.598374 C61.2035204,88.4621414 61.199961,88.3294242 61.199961,88.2002227 L61.199961,88.2002227 Z M100.440118,95.1357897 C97.4878366,94.4106798 95.1033356,92.2415021 94.1031286,89.3709457 C93.1020424,86.5003893 93.6214822,83.3186945 95.4830276,80.9157242 L100.440118,95.1357897 Z M89.8852075,64.8771708 C86.769448,67.1447874 82.5559217,67.1781865 79.4050053,64.9589104 C76.254968,62.7396345 74.8671586,58.7607584 75.9534998,55.0631372 C77.0398405,51.3663947 80.3595089,48.7709406 84.2091638,48.6083402 L89.8852075,64.8771708 Z M82.9804382,45.1146285 C77.8765692,45.7509674 73.6718319,49.4257368 72.3569726,54.3986726 C71.0429924,59.3707298 72.8825649,64.6433776 77.005563,67.7187229 C81.128561,70.7931892 86.7070449,71.0542287 91.0981125,68.3761559 L94.1400429,77.0924172 C90.3923423,80.4815372 89.0388109,85.7849474 90.7026001,90.5557315 C92.3672681,95.3265155 96.7266947,98.6365327 101.769039,98.9590966 L103.273745,103.278994 L80.5537494,95.3590355 C83.5772227,90.9881607 83.5288822,85.1890387 80.4342168,80.8691414 C77.3386724,76.548365 71.8630216,74.6384693 66.7521212,76.0957205 C61.6412208,77.5529717 57.9963536,82.0635953 57.6447869,87.3670055 L32.1025899,78.4565029 L43.0969585,67.4620779 C45.3197386,71.3890976 49.4875615,73.8122832 53.9999195,73.7999784 C60.9547869,73.7911891 66.5912794,68.1546677 66.6000686,61.1997646 C66.6106156,56.6838676 64.1821689,52.5142656 60.2490168,50.2949897 L78.4443495,32.1004428 L82.9804382,45.1146285 Z" id="Shape"></path>
                <path d="M25,48.8181818 C25,47.814098 24.185902,47 23.1818182,47 C13.1445311,47.0106534 5.01065341,55.1445311 5,65.1818182 C5,66.185902 5.81409795,67 6.81818182,67 C7.82226568,67 8.63636364,66.185902 8.63636364,65.1818182 C8.64524159,57.1526989 15.1518111,50.6452416 23.1818182,50.6363636 C24.185902,50.6363636 25,49.8222657 25,48.8181818 Z" id="Path"></path>
                <path d="M22,43.1429509 C22,42.1174027 21.1940715,41.2859018 20.2000636,41.2859018 C13.1101773,41.2859018 10.7881892,38.2292061 7.29817574,32.8267167 C6.74624212,31.9734534 5.62831287,31.7431357 4.80129137,32.3125824 C3.97426986,32.8820291 3.75103545,34.0354307 4.30296907,34.8886939 C8.12959179,40.8089449 11.5079878,45 20.2000636,45 C21.1940715,45 22,44.1684991 22,43.1429509 Z" id="Path"></path>
                <path d="M29.8574623,57.4222612 C30.7906193,57.0566372 31.2434095,56.0230133 30.8680118,55.1132858 C30.4935036,54.203558 29.4322488,53.7634231 28.498202,54.1281805 C25.722749,55.2727047 23.5317423,57.4499862 22.4135551,60.1757035 C21.519539,63.2306557 22.0915312,66.5152058 23.9694099,69.1118285 C24.2985503,69.6671955 24.9096835,70.0068272 25.5679642,70.000101 C26.2271342,69.9920983 26.8302614,69.6394705 27.1460582,69.0763056 C27.461855,68.513141 27.4413949,67.8278127 27.0917946,67.283709 C25.801031,65.5734211 25.3500198,63.395273 25.8579634,61.3306246 C26.6283296,59.5778825 28.0596449,58.1786347 29.8574623,57.4222612 L29.8574623,57.4222612 Z" id="Path"></path>
                <path d="M20,70.5 C20,68.0144531 17.984668,66 15.5,66 C13.0144531,66 11,68.0144531 11,70.5 C11,72.9855469 13.0144531,75 15.5,75 C17.984668,75 20,72.9855469 20,70.5 Z M14.6,70.5 C14.6,70.003418 15.0025392,69.6 15.5,69.6 C15.996582,69.6 16.4,70.003418 16.4,70.5 C16.4,70.9974608 15.996582,71.4 15.5,71.4 C15.0025392,71.4 14.6,70.9974608 14.6,70.5 Z" id="Shape"></path>
                <path d="M4.5,52 C6.98466802,52 9,49.9855469 9,47.5 C9,45.0144531 6.98466802,43 4.5,43 C2.01445312,43 0,45.0144531 0,47.5 C0,49.9855469 2.01445312,52 4.5,52 Z M4.5,46.6 C4.99658198,46.6 5.4,47.003418 5.4,47.5 C5.4,47.9974608 4.99658198,48.4 4.5,48.4 C4.00253918,48.4 3.6,47.9974608 3.6,47.5 C3.6,47.003418 4.00253918,46.6 4.5,46.6 Z" id="Shape"></path>
                <path d="M68.6005179,8.48097018 C59.2502069,6.20381637 50.6062048,12.1875259 48.0522138,22.7246441 C47.8131967,23.7126394 48.4174533,24.7087257 49.4012726,24.9487574 C49.5436087,24.982919 49.6886301,25 49.8345469,25 C50.6796109,24.9991011 51.415461,24.4183503 51.6141944,23.5930732 C53.3741477,16.3354881 59.4668442,10.0497163 67.7330741,12.0607677 C68.7177883,12.3007993 69.7087691,11.6939778 69.9477862,10.7050835 C70.1868033,9.71708811 69.5825467,8.72100186 68.5987274,8.48097018 L68.6005179,8.48097018 Z" id="Path"></path>
                <path d="M38.1605635,0.0517756746 C37.2229044,-0.185248808 36.2775666,0.413970303 36.049764,1.39047543 C35.8219614,2.36609288 36.3978667,3.34969986 37.3355258,3.58672435 C42.1082871,4.79581513 44.6149682,11.0170405 43.0391207,17.7531504 C42.8113181,18.7287679 43.3872234,19.7123749 44.3248826,19.9493993 C44.4605403,19.983133 44.5987574,20 44.7378279,20 C45.5432421,19.9991123 46.2445666,19.4256374 46.4339755,18.6106996 C48.4731068,9.89494735 44.839358,1.74290518 38.1605635,0.0517756746 Z" id="Path"></path>
                <path d="M57.2545712,31.2103716 C58.2465219,29.8512498 59.7100413,28.9403777 61.3391762,28.668194 C63.5462226,28.6915496 65.6303649,29.7165055 67.0354827,31.4699793 C67.7467583,32.1149557 68.8232601,32.0754307 69.4874661,31.378353 C70.1525435,30.6821735 70.1725918,29.5727781 69.5345357,28.8505479 C67.4007088,26.310167 64.2679582,24.8971472 61.0088165,25.005841 C58.3319446,25.384922 55.9191861,26.8653138 54.3196878,29.1101556 C53.7565944,29.9437743 53.9570767,31.0908983 54.7659783,31.6702991 C55.5757516,32.2505985 56.6879915,32.0448888 57.2510846,31.2103716 L57.2545712,31.2103716 Z" id="Path"></path>
                <path d="M73.5664792,16.1294482 C71.1519084,15.5397537 68.7171282,17.0205814 68.1284229,19.4364838 C67.5414748,21.8506285 69.0220249,24.2832287 71.4357171,24.8711656 C73.8494092,25.4591025 76.2824322,23.9791535 76.8711375,21.565009 C77.4589644,19.1508642 75.9801715,16.7173851 73.5664792,16.1276906 L73.5664792,16.1294482 Z M73.3740516,20.714302 C73.2721265,21.1308671 72.8899074,21.4182444 72.4602402,21.39891 C72.0314518,21.3804547 71.6755926,21.0605607 71.6105715,20.636086 C71.5455502,20.2124903 71.7898189,19.8011981 72.1931261,19.6544335 C72.5964333,19.5076689 73.0471883,19.6667372 73.2694906,20.0340878 C73.3933823,20.2379763 73.431165,20.482291 73.3740516,20.714302 Z" id="Shape"></path>
                <path d="M54.5658136,0.128727682 C52.1513172,-0.458972946 49.7174906,1.02125966 49.1288035,3.4353127 C48.5409949,5.84936573 50.0206208,8.28274535 52.4351172,8.8713244 C54.8496137,9.45902503 57.28344,7.977914 57.8712486,5.56386097 C58.4590574,3.14980794 56.9785527,0.71642831 54.5640565,0.128727682 L54.5658136,0.128727682 Z M54.3751493,4.71173901 C54.2793776,5.10705326 53.9288013,5.38904412 53.521992,5.39870741 C53.1151827,5.40837071 52.7523054,5.14307074 52.6372038,4.75214881 C52.522981,4.36210531 52.6846503,3.94307214 53.0325909,3.73135917 C53.4569727,3.47308724 54.0105146,3.60749406 54.2688342,4.0317982 C54.3936006,4.23472629 54.4313821,4.47982125 54.3751493,4.71173901 Z" id="Shape"></path>
                <path d="M47.5800782,47.5788623 C47.2138672,47.9618109 47.0058593,48.469804 47,48.9992889 C47,50.1041739 47.8955078,51 49,51 C50.1044922,51 51,50.1041739 51,48.9992889 C50.9921875,48.469804 50.7851562,47.9618109 50.4199218,47.5788623 C50.321289,47.4880095 50.2138672,47.4079031 50.0996093,47.3385424 C49.9970703,47.2594128 49.8828125,47.1988442 49.7597657,47.158791 C49.6396485,47.0982225 49.5107422,47.0571924 49.3779297,47.0386311 C48.725586,46.9087021 48.0517578,47.1109225 47.5800782,47.5788623 Z" id="Path"></path>
                <path d="M80.2402849,12.8396758 C80.8545086,13.1033363 81.5615003,13.0388859 82.1181097,12.6678083 C82.6747194,12.2967308 83.0067321,11.6688285 82.9998965,10.9999125 C82.9998965,9.89546859 82.1044387,9 81,9 C79.8955777,9 79.00012,9.89546859 79.00012,10.9999125 C78.994261,11.5321158 79.2032336,12.0438121 79.5801658,12.4197722 C79.7744907,12.5965225 79.9971345,12.7381178 80.2402849,12.8396758 L80.2402849,12.8396758 Z" id="Path"></path>
                <path d="M9.58035787,90.5586398 C9.40358908,90.754188 9.26197893,90.9792161 9.16041023,91.2229146 C8.94652992,91.7103118 8.94652992,92.2645297 9.16041023,92.7519269 C9.26197893,92.9956254 9.40358908,93.2206535 9.58035787,93.4162017 C10.1526583,93.992038 11.0159923,94.1600722 11.7601784,93.8387437 C12.0023807,93.7365476 12.2250503,93.59308 12.4203747,93.4162017 C12.596167,93.2206535 12.7387537,92.9956254 12.8403224,92.7519269 C13.0532259,92.2645297 13.0532259,91.7103118 12.8403224,91.2229146 C12.7387537,90.9792161 12.5971435,90.754188 12.4203747,90.5586398 C11.618568,89.8137867 10.3821646,89.8137867 9.58035787,90.5586398 Z" id="Path"></path>
                <path d="M6.12038452,77.3424172 C6.00808399,77.2677628 5.8869948,77.2076513 5.76004657,77.1640222 C5.63993384,77.1039107 5.51103244,77.0631902 5.37822494,77.0447689 C4.44368959,76.841166 3.49938936,77.3482346 3.16053486,78.2363313 C2.80312631,79.0672257 3.05702326,80.0328857 3.77769914,80.5855223 C4.49739857,81.1381592 5.50224377,81.1381592 6.22291966,80.5855223 C6.94261909,80.0328857 7.19651579,79.0672257 6.84008394,78.2363313 C6.73852526,77.9958858 6.59692909,77.7738616 6.42017774,77.5809237 C6.32447834,77.4956044 6.22487259,77.4161021 6.12038452,77.3424172 L6.12038452,77.3424172 Z" id="Path"></path>
                <path d="M92.7602795,10.8393326 C93.0024621,10.7375572 93.2251135,10.5946802 93.420422,10.4185301 C93.5961999,10.2237869 93.738775,9.99968517 93.8403354,9.75698984 C94.0532215,9.27159916 94.0532215,8.71966275 93.8403354,8.23427207 C93.738775,7.99157674 93.5971764,7.76747506 93.420422,7.57273181 C93.2290199,7.39168873 93.004415,7.24881176 92.7602795,7.15192928 C92.2739612,6.94935691 91.7270975,6.94935691 91.2407792,7.15192928 C90.9956672,7.24881176 90.7720388,7.39168873 90.5806367,7.57273181 C90.4038823,7.76747506 90.2622837,7.99157674 90.1607233,8.23427207 C90.0484209,8.47207442 89.9937345,8.73238487 90.0005703,8.99563095 C89.9937345,9.6659789 90.3247824,10.2952253 90.8823883,10.6670972 C91.4390174,11.0389691 92.1450576,11.1035575 92.7602795,10.8393326 L92.7602795,10.8393326 Z" id="Path"></path>
            </g>
            <path d="M169.778271,88 C165.757556,88 161.988192,87.1407493 158.470067,85.4222222 C154.951941,83.7036951 152.128614,81.3333484 150,78.3111111 L154.966741,73.3333333 C156.799714,75.7037156 159.105677,77.6148076 161.884701,79.0666667 C164.663724,80.5185258 167.413142,81.2444444 170.133038,81.2444444 C173.621599,81.2444444 176.444926,80.3555644 178.603104,78.5777778 C180.761282,76.7999911 181.840355,74.4592738 181.840355,71.5555556 C181.840355,69.6592498 181.470809,68 180.731707,66.5777778 C179.992605,65.1555484 178.721369,63.7777844 176.91796,62.4444444 C175.114551,61.1111044 172.557297,59.6444524 169.24612,58.0444444 C162.919407,54.9629476 158.470079,52.0444582 155.898004,49.2888889 C153.325929,46.5333196 152.039911,43.3185369 152.039911,39.6444444 C152.039911,34.90368 153.754602,31.1111253 157.184035,28.2666667 C160.613469,25.422208 165.166269,24 170.842572,24 C174.804159,24 178.425704,24.8592507 181.707317,26.5777778 C184.98893,28.2963049 187.368803,30.6073929 188.847007,33.5111111 L183.525499,37.4222222 C182.106423,35.3481378 180.273478,33.7185244 178.026608,32.5333333 C175.779737,31.3481422 173.414647,30.7555556 170.931264,30.7555556 C167.620087,30.7555556 165.003705,31.5407329 163.08204,33.1111111 C161.160375,34.6814893 160.199557,36.7999867 160.199557,39.4666667 C160.199557,41.0666747 160.55432,42.429624 161.263858,43.5555556 C161.973396,44.6814871 163.288978,45.8518458 165.210643,47.0666667 C167.132308,48.2814876 170.162581,49.9259156 174.301552,52 C179.918727,54.7851991 183.939382,57.6444298 186.363636,60.5777778 C188.787891,63.5111258 190,66.9629431 190,70.9333333 C190,74.311128 189.157436,77.288876 187.472284,79.8666667 C185.787131,82.4444573 183.42204,84.4444373 180.37694,85.8666667 C177.33184,87.288896 173.798985,88 169.778271,88 Z M218.45567,88 C214.081765,88 210.284209,87.0711631 207.062887,85.2134615 C203.841565,83.3557599 201.359115,80.6871969 199.615464,77.2076923 C197.871813,73.7281877 197,69.6589977 197,65 C197,60.3410023 197.871813,56.2718123 199.615464,52.7923077 C201.359115,49.3128031 203.841565,46.6442401 207.062887,44.7865385 C210.284209,42.9288369 214.081765,42 218.45567,42 C225.075634,42 230.321286,44.0640819 234.192784,48.1923077 C238.064281,52.3205335 240,57.9230415 240,65 C240,72.0769585 238.064281,77.6794665 234.192784,81.8076923 C230.321286,85.9359181 225.075634,88 218.45567,88 Z M218.955556,82 C223.340763,82 226.777765,80.44446 229.266667,77.3333333 C231.755568,74.2222067 233,69.9444717 233,64.5 C233,59.0555283 231.755568,54.7777933 229.266667,51.6666667 C226.777765,48.55554 223.340763,47 218.955556,47 C214.629608,47 211.222235,48.55554 208.733333,51.6666667 C206.244432,54.7777933 205,59.0555283 205,64.5 C205,69.9444717 206.244432,74.2222067 208.733333,77.3333333 C211.222235,80.44446 214.629608,82 218.955556,82 Z M258.768844,88 C252.256249,88 249,84.2283179 249,76.6848404 L249,21 L256.688442,21 L256.688442,76.5957447 C256.688442,78.6746558 257.035172,80.1447209 257.728643,81.005984 C258.422114,81.8672472 259.613057,82.2978723 261.301508,82.2978723 C262.628147,82.2978723 264.13567,81.9414929 265.824121,81.2287234 L267,85.7726064 C264.708531,87.2575429 261.96484,88 258.768844,88 Z M280.454545,35 C278.757567,35 277.424247,34.5575265 276.454545,33.6725664 C275.484844,32.7876062 275,31.5781788 275,30.0442478 C275,28.5103168 275.484844,27.2861403 276.454545,26.3716814 C277.424247,25.4572226 278.757567,25 280.454545,25 C282.151524,25 283.5,25.4572226 284.5,26.3716814 C285.5,27.2861403 286,28.5103168 286,30.0442478 C286,31.5781788 285.5,32.7876062 284.5,33.6725664 C283.5,34.5575265 282.151524,35 280.454545,35 Z M276,42 L284,42 L284,87 L276,87 L276,42 Z M312.449848,88 C308.571409,88 305.515715,86.7275576 303.282675,84.1826347 C301.049634,81.6377118 299.933131,78.1197829 299.933131,73.6287425 L299.933131,48.1197605 L292,48.1197605 L292,42.1916168 L299.933131,42.1916168 L299.933131,30.245509 L307.072948,28 L307.425532,28 L307.425532,42.1916168 L319.942249,42.1916168 L319.942249,48.1197605 L307.425532,48.1197605 L307.425532,72.9101796 C307.425532,75.9640871 307.983784,78.2245436 309.100304,79.6916168 C310.216824,81.15869 311.950343,81.8922156 314.300912,81.8922156 C316.827774,81.8922156 318.884491,81.5628775 320.471125,80.9041916 L321,86.5628743 C319.060781,87.5209629 316.210758,88 312.449848,88 Z M345.689655,88 C340.5494,88 336.649439,86.3529576 333.989655,83.0588235 C331.329872,79.7646894 330,74.9117968 330,68.5 L330,43 L337.62069,43 L337.62069,68.5882353 C337.62069,77.5294565 340.848244,82 347.303448,82 C349.813806,82 352.085047,81.3676534 354.117241,80.1029412 C356.149435,78.838229 357.733328,77.0735407 358.868966,74.8088235 C360.004603,72.5441063 360.572414,70.0000141 360.572414,67.1764706 L360.572414,43 L368.193103,43 L368.193103,77.7647059 C368.193103,80.7058971 368.462066,83.8235129 369,87.1176471 L362.006897,87.1176471 C361.468963,84.5293988 361.170115,81.9117779 361.110345,79.2647059 L360.841379,79.2647059 C359.52643,81.9706018 357.509209,84.1029334 354.789655,85.6617647 C352.070101,87.220596 349.036798,88 345.689655,88 Z M395.708241,88 C389.947261,88 385.389029,85.8617235 382.033408,81.5851064 C378.677786,77.3084893 377,71.4579272 377,64.0332447 C377,59.5190377 377.772078,55.584015 379.316258,52.2280585 C380.860438,48.872102 383.057892,46.2735021 385.908686,44.4321809 C388.75948,42.5908596 392.085356,41.6702128 395.886414,41.6702128 C401.350436,41.6702128 405.745343,43.9569807 409.071269,48.5305851 L409.249443,48.5305851 L409.249443,21 L416.732739,21 L416.732739,75.8829787 C416.732739,81.4069425 416.821825,85.1489264 417,87.1090426 L410.051225,87.1090426 C409.932442,85.6835035 409.873051,83.337339 409.873051,80.0704787 L409.694878,80.0704787 C408.328872,82.4463771 406.368981,84.3619165 403.815145,85.8171543 C401.261309,87.272392 398.559034,88 395.708241,88 Z M396.40942,82 C400.274174,82 403.338757,80.872535 405.603261,78.6175711 C407.867765,76.3626072 409,73.3316297 409,69.5245478 L409,61.5297158 C409,57.4297814 407.852668,54.1498831 405.557971,51.6899225 C403.263274,49.2299619 400.213787,48 396.40942,48 C392.544667,48 389.510277,49.4495979 387.306159,52.3488372 C385.102042,55.2480765 384,59.3040222 384,64.5167959 C384,69.9638515 385.102042,74.2394332 387.306159,77.3436693 C389.510277,80.4479053 392.544667,82 396.40942,82 Z M465,67.9192308 L432.713004,67.9192308 C433.131542,72.4013045 434.47682,75.8070396 436.748879,78.1365385 C439.020938,80.4660373 442.15992,81.6307692 446.165919,81.6307692 C451.547112,81.6307692 455.822107,79.5372004 458.991031,75.35 L463.295964,79.4192308 C461.562024,82.1320648 459.155471,84.2403771 456.076233,85.7442308 C452.996995,87.2480844 449.603905,88 445.896861,88 C439.260057,88 434.118105,85.9948918 430.470852,81.9846154 C426.823599,77.9743389 425,72.342344 425,65.0884615 C425,57.8935538 426.838547,52.2468154 430.515695,48.1480769 C434.192843,44.0493385 439.260057,42 445.717489,42 C451.756383,42 456.479804,44.0198516 459.887892,48.0596154 C463.295981,52.0993792 465,57.7461176 465,65 L465,67.9192308 Z M458,61.3913043 C458,57.2173704 456.891855,53.9420409 454.675532,51.5652174 C452.459209,49.1883939 449.400729,48 445.5,48 C441.835679,48 438.924952,49.2173791 436.76773,51.6521739 C434.610509,54.0869687 433.354612,57.5362096 433,62 L458,62 L458,61.3913043 Z" id="Solitude"></path>
        </g>
    </g>
</svg>